# xmcd
#
# Track frame offsets:
#	150
#	15892
#	39972
#	53782
#	75652
#	97079
#	111037
#	127087
#	142509
#	164912
#	182994
#	206017
#	219097
#	235902
#	252884
#	282959
#
# Disc length: 4046 seconds
#
# Revision: 1
# Processed by: cddbd v1.5.2PL0 Copyright (c) Steve Scherf et al.
# Submitted via: audiograbber 1.83.01
#
DISCID=d80fcc10
DTITLE=Deni Hines and James Morrison - The Other Woman
DYEAR=2007
DGENRE=Jazz
TTITLE0=I Only Have Eyes For You
TTITLE1=Lady Sings The Blues
TTITLE2=Too Darn Hot
TTITLE3=Smoke Gets In Your Eyes
TTITLE4=All The Kings Horses
TTITLE5=Them There Eyes
TTITLE6=The Man I Love
TTITLE7=Summertime
TTITLE8=The Other Woman
TTITLE9=Strange Fruit
TTITLE10=God Bless The Child
TTITLE11=Wake Up
TTITLE12=The Very Thought Of You
TTITLE13=Turn Me On
TTITLE14=(Tired Of Being) The Other Woman
TTITLE15=Someone To Watch Over Me
EXTD=YEAR: 2007
EXTT0=
EXTT1=
EXTT2=
EXTT3=
EXTT4=
EXTT5=
EXTT6=
EXTT7=
EXTT8=
EXTT9=
EXTT10=
EXTT11=
EXTT12=
EXTT13=
EXTT14=
EXTT15=
PLAYORDER=
